<svg width="188" height="156" viewBox="0 0 188 156" fill="none" xmlns="http://www.w3.org/2000/svg">
<g filter="url(#filter0_d_2001_514)">
<mask id="path-1-inside-1_2001_514" fill="white">
<path d="M8 18C8 12.4772 12.4772 8 18 8H170C175.523 8 180 12.4772 180 18V138C180 143.523 175.523 148 170 148H18C12.4772 148 8 143.523 8 138V18Z"/>
</mask>
<path d="M8 18C8 12.4772 12.4772 8 18 8H170C175.523 8 180 12.4772 180 18V138C180 143.523 175.523 148 170 148H18C12.4772 148 8 143.523 8 138V18Z" fill="white"/>
<path d="M8 18C8 10.268 14.268 4 22 4H166C173.732 4 180 10.268 180 18C180 14.6863 175.523 12 170 12H18C12.4772 12 8 14.6863 8 18ZM180 148H8H180ZM8 148V8V148ZM180 8V148V8Z" fill="#F26C29" mask="url(#path-1-inside-1_2001_514)"/>
<rect width="172" height="68" transform="translate(8 20)" fill="white"/>
<path d="M108.796 65.8182L89.8735 33.004L103.467 25.2128L126.997 65.8182H108.796Z" fill="black"/>
<path d="M58.3954 61.2207L71.989 53.3769L79.1815 65.8182H61.0333L58.3954 61.2207Z" fill="black"/>
<path d="M85.0727 86.7526H88.9415V71.1351H85.0727V86.7526Z" fill="black"/>
<path d="M133.556 87.1211C129.23 87.1211 126.627 84.8925 126.487 81.7515H130.566C130.566 82.7342 131.182 84.1731 133.82 84.2257C135.578 84.2257 136.405 83.1904 136.405 82.4183C136.299 81.19 134.752 81.0847 133.099 80.8215C131.446 80.5582 130.039 80.2599 129.019 79.7335C127.718 79.0667 126.838 77.6278 126.838 75.9783C126.838 73.1882 129.265 70.9772 133.31 70.9772C137.231 70.9772 139.711 73.0303 139.975 76.0836H136.035C136 75.2588 135.842 73.9603 133.521 73.9603C131.956 73.9603 130.918 74.2762 130.83 75.3641C130.83 76.961 134.083 76.8557 136.616 77.5225C139.043 78.1367 140.59 79.6458 140.59 81.7515C140.59 85.6295 137.442 87.1211 133.556 87.1211Z" fill="black"/>
<path d="M74.3279 47.2878L87.9215 39.4615L103.168 65.8182H88.9415V69.6787H85.0727V65.8006L74.3279 47.2878Z" fill="black"/>
<path d="M74.6796 87.1211C70.1777 87.1211 66.5199 83.4536 66.5199 79.0141C66.5199 74.5218 70.1777 70.9772 74.6796 70.9772C76.3854 70.9772 77.9329 71.4334 79.287 72.3635V65.8182H83.1558V86.7526H79.287V85.7173C77.9329 86.5947 76.3854 87.1211 74.6796 87.1211ZM70.2305 79.0141C70.2305 81.4356 72.3056 83.4536 74.7851 83.4536C77.2119 83.4536 79.287 81.4356 79.287 79.0141C79.287 76.5925 77.2119 74.5218 74.7851 74.5218C72.3056 74.5218 70.2305 76.5925 70.2305 79.0141Z" fill="black"/>
<path d="M103.274 65.8182H107.09V86.7526H103.274V85.7173C101.972 86.5947 100.372 87.1211 98.6135 87.1211C94.1644 87.1211 90.5066 83.4536 90.5066 79.0141C90.5066 74.5218 94.1644 70.9772 98.6135 70.9772C100.372 70.9772 101.92 71.4334 103.274 72.3635V65.8182ZM94.2699 79.0141C94.2699 81.4356 96.345 83.4536 98.719 83.4536C101.199 83.4536 103.274 81.4356 103.274 79.0141C103.274 76.5925 101.199 74.5218 98.719 74.5218C96.345 74.5218 94.2699 76.5925 94.2699 79.0141Z" fill="black"/>
<path d="M116.498 87.1211C112.066 87.1211 108.391 83.4536 108.391 79.0141C108.391 74.5219 112.066 70.9772 116.498 70.9772C118.204 70.9772 119.804 71.4335 121.105 72.3635V71.1176H124.974V86.7526H121.105V85.7173C119.804 86.5947 118.256 87.1211 116.498 87.1211ZM112.154 79.0141C112.154 81.4356 114.229 83.4536 116.656 83.4536C119.083 83.4536 121.105 81.4356 121.105 79.0141C121.105 76.5925 119.083 74.5219 116.656 74.5219C114.229 74.5219 112.154 76.5925 112.154 79.0141Z" fill="black"/>
<path d="M52.2932 79.014C52.2932 81.4356 54.3683 83.4536 56.7951 83.4536C59.2747 83.4536 61.3498 81.4356 61.3498 79.014C61.3498 76.5925 59.2747 74.5218 56.7951 74.5218C54.3683 74.5218 52.2932 76.5925 52.2932 79.014ZM56.6896 87.1211C52.2405 87.1211 48.5651 83.4536 48.5651 79.014C48.5651 74.5218 52.2405 70.9772 56.6896 70.9772C58.3954 70.9772 59.9957 71.4334 61.3498 72.3635V71.1176H65.1658V86.7526H61.3498V85.7173C60.0485 86.5947 58.4482 87.1211 56.6896 87.1211Z" fill="black"/>
<rect width="172" height="60" transform="translate(8 88)" fill="white"/>
<path d="M65.4637 109.2V105.65H71.7137V109.2H65.4637ZM76.5563 116.3C74.9063 116.3 73.8063 116 73.3813 115.875L74.1313 112.425C74.4563 112.525 75.2563 112.8 76.4313 112.8C78.3563 112.8 79.7063 112.25 79.7063 110.9C79.7063 109.5 78.4813 109 75.7063 108.975V105.95C78.1813 105.875 79.3063 105.05 79.3063 103.95C79.3063 103.025 78.6563 102.55 77.5313 102.55C76.5563 102.55 75.5563 103.075 75.0563 103.45L73.2313 100.575C74.1563 99.925 75.9313 99.05 78.6063 99.05C82.0563 99.05 83.9313 100.575 83.9313 102.925C83.9313 105.125 82.2563 106.3 80.6313 106.775V106.825C82.4313 107.05 84.5313 108.25 84.5313 110.9C84.5313 114.25 81.5313 116.3 76.5563 116.3ZM93.3777 116.3C88.2527 116.3 86.2527 112.175 86.2527 107.675C86.2527 103.15 88.1527 99.05 93.3527 99.05C98.4777 99.05 100.503 103.175 100.503 107.675C100.503 112.175 98.4777 116.3 93.3777 116.3ZM93.3527 112.8C95.0777 112.8 95.6777 111.225 95.6777 107.675C95.6777 104.125 95.0777 102.55 93.3777 102.55C91.6527 102.55 91.0527 104.125 91.0527 107.675C91.0527 111.225 91.6527 112.8 93.3527 112.8ZM106.427 107.95C103.327 107.95 101.602 106.05 101.602 103.525C101.602 101.1 103.377 99.05 106.477 99.05C109.577 99.05 111.302 100.875 111.302 103.4C111.302 105.9 109.527 107.95 106.427 107.95ZM106.477 105.3C107.452 105.3 107.527 104.4 107.527 103.525C107.527 102.675 107.327 101.7 106.452 101.7C105.552 101.7 105.377 102.475 105.377 103.4C105.377 104.275 105.577 105.3 106.477 105.3ZM118.452 116.3C115.352 116.3 113.627 114.4 113.627 111.875C113.627 109.45 115.402 107.4 118.502 107.4C121.602 107.4 123.327 109.225 123.327 111.75C123.327 114.25 121.552 116.3 118.452 116.3ZM118.502 113.65C119.477 113.65 119.552 112.75 119.552 111.875C119.552 111.025 119.352 110.05 118.477 110.05C117.577 110.05 117.402 110.825 117.402 111.75C117.402 112.625 117.602 113.65 118.502 113.65ZM105.827 116L115.527 99.35H119.052L109.352 116H105.827Z" fill="#005F86"/>
<path d="M20.9846 133V123.4H17.9606V122.344H25.2726V123.4H22.2486V133H20.9846ZM28.7389 133.192C26.1469 133.192 25.1869 130.968 25.1869 129.176C25.1869 127.384 26.0989 125.128 28.6909 125.128C31.2829 125.128 32.3549 127.352 32.3549 129.144C32.3549 130.936 31.3309 133.192 28.7389 133.192ZM28.7549 132.184C30.3549 132.184 31.1069 130.824 31.1069 129.176C31.1069 127.528 30.2749 126.136 28.6749 126.136C27.0749 126.136 26.4349 127.496 26.4349 129.144C26.4349 130.792 27.1549 132.184 28.7549 132.184ZM34.312 136.504V125.32H35.48V126.152C35.88 125.672 36.6 125.128 37.704 125.128C39.576 125.128 40.824 126.6 40.824 129.144C40.824 131.56 39.416 133.192 37.432 133.192C36.344 133.192 35.768 132.776 35.48 132.52V136.504H34.312ZM37.32 132.184C38.792 132.184 39.576 130.904 39.576 129.176C39.576 127.464 38.92 126.184 37.464 126.184C36.392 126.184 35.688 126.968 35.48 127.256V131.48C35.832 131.8 36.376 132.184 37.32 132.184ZM45.7408 133.192C43.3248 133.192 42.1088 131.384 42.1088 129.112C42.1088 126.856 43.5168 125.128 45.5648 125.128C47.4688 125.128 48.5888 126.488 48.5888 128.584C48.5888 128.76 48.5728 128.936 48.5568 129.128H43.3568C43.3888 130.76 44.0448 132.184 45.7728 132.184C46.8448 132.184 47.5648 131.704 47.9008 131.496L48.3808 132.408C47.9968 132.664 47.1328 133.192 45.7408 133.192ZM43.4208 128.2H47.3888C47.3568 127.112 46.8608 126.136 45.5328 126.136C44.3008 126.136 43.6288 127 43.4208 128.2ZM51.1045 133.144C50.5605 133.144 50.1285 132.696 50.1285 132.152C50.1285 131.608 50.5605 131.192 51.1045 131.192C51.6485 131.192 52.0805 131.608 52.0805 132.152C52.0805 132.696 51.6485 133.144 51.1045 133.144ZM51.1045 127.144C50.5605 127.144 50.1285 126.712 50.1285 126.168C50.1285 125.624 50.5605 125.192 51.1045 125.192C51.6485 125.192 52.0805 125.624 52.0805 126.168C52.0805 126.712 51.6485 127.144 51.1045 127.144ZM61.028 134.888H60.1V133.192C58.532 133.144 57.572 132.472 57.204 132.104L57.844 131.208C58.068 131.432 58.804 132.12 60.148 132.152V127.976C60.1 127.944 60.052 127.928 60.004 127.896C58.708 127.256 57.524 126.568 57.524 124.872C57.524 123.32 58.692 122.392 60.1 122.2V120.456H61.028V122.168C62.356 122.248 63.108 122.76 63.428 123L62.82 123.928C62.484 123.672 61.892 123.288 60.98 123.208V127C62.308 127.64 63.716 128.408 63.716 130.328C63.716 131.784 62.644 132.872 61.028 133.128V134.888ZM62.468 130.344C62.468 129.384 61.812 128.84 60.98 128.392V132.072C61.892 131.848 62.468 131.16 62.468 130.344ZM58.74 124.808C58.74 125.752 59.332 126.2 60.148 126.6V123.24C59.316 123.4 58.74 123.992 58.74 124.808ZM66.7404 133.192C65.8604 133.192 65.3324 133.112 65.1724 133.064L65.3484 132.024C65.5244 132.072 65.9724 132.152 66.7084 132.152C68.6604 132.152 69.7164 131.288 69.7164 129.896C69.7164 128.264 68.2764 127.704 66.2924 127.688V126.824C67.8924 126.808 69.3964 125.992 69.3964 124.616C69.3964 123.736 68.7724 123.224 67.6684 123.224C66.6444 123.224 66.0524 123.544 65.4764 123.992L64.9004 123.208C65.4604 122.712 66.4204 122.152 67.7484 122.152C69.6844 122.152 70.6604 123.192 70.6604 124.552C70.6604 125.896 69.5564 126.776 68.3404 127.112V127.128C69.7324 127.256 70.9964 128.36 70.9964 129.832C70.9964 132.024 69.1724 133.192 66.7404 133.192ZM76.6903 133.192C73.7943 133.192 72.6743 130.296 72.6743 127.672C72.6743 125.016 73.7303 122.152 76.6743 122.152C79.5703 122.152 80.7063 125.048 80.7063 127.672C80.7063 130.296 79.5703 133.192 76.6903 133.192ZM76.6743 132.184C78.5783 132.184 79.4263 130.184 79.4263 127.672C79.4263 125.16 78.5783 123.16 76.6903 123.16C74.7863 123.16 73.9383 125.16 73.9383 127.672C73.9383 130.184 74.7863 132.184 76.6743 132.184ZM83.2288 133.144C82.6848 133.144 82.2528 132.712 82.2528 132.168C82.2528 131.624 82.6848 131.208 83.2288 131.208C83.7728 131.208 84.2048 131.624 84.2048 132.168C84.2048 132.712 83.7728 133.144 83.2288 133.144ZM89.7684 133.192C86.8724 133.192 85.7524 130.296 85.7524 127.672C85.7524 125.016 86.8084 122.152 89.7524 122.152C92.6484 122.152 93.7844 125.048 93.7844 127.672C93.7844 130.296 92.6484 133.192 89.7684 133.192ZM89.7524 132.184C91.6564 132.184 92.5044 130.184 92.5044 127.672C92.5044 125.16 91.6564 123.16 89.7684 123.16C87.8644 123.16 87.0164 125.16 87.0164 127.672C87.0164 130.184 87.8644 132.184 89.7524 132.184ZM99.3309 133.192C96.4349 133.192 95.3149 130.296 95.3149 127.672C95.3149 125.016 96.3709 122.152 99.3149 122.152C102.211 122.152 103.347 125.048 103.347 127.672C103.347 130.296 102.211 133.192 99.3309 133.192ZM99.3149 132.184C101.219 132.184 102.067 130.184 102.067 127.672C102.067 125.16 101.219 123.16 99.3309 123.16C97.4269 123.16 96.5789 125.16 96.5789 127.672C96.5789 130.184 97.4269 132.184 99.3149 132.184ZM108.893 133.192C105.997 133.192 104.877 130.296 104.877 127.672C104.877 125.016 105.933 122.152 108.877 122.152C111.773 122.152 112.909 125.048 112.909 127.672C112.909 130.296 111.773 133.192 108.893 133.192ZM108.877 132.184C110.781 132.184 111.629 130.184 111.629 127.672C111.629 125.16 110.781 123.16 108.893 123.16C106.989 123.16 106.141 125.16 106.141 127.672C106.141 130.184 106.989 132.184 108.877 132.184ZM118.578 136.504V125.32H119.746V126.152C120.146 125.672 120.866 125.128 121.97 125.128C123.842 125.128 125.09 126.6 125.09 129.144C125.09 131.56 123.682 133.192 121.698 133.192C120.61 133.192 120.034 132.776 119.746 132.52V136.504H118.578ZM121.586 132.184C123.058 132.184 123.842 130.904 123.842 129.176C123.842 127.464 123.186 126.184 121.73 126.184C120.658 126.184 119.954 126.968 119.746 127.256V131.48C120.098 131.8 120.642 132.184 121.586 132.184ZM129.926 133.192C127.334 133.192 126.374 130.968 126.374 129.176C126.374 127.384 127.286 125.128 129.878 125.128C132.47 125.128 133.542 127.352 133.542 129.144C133.542 130.936 132.518 133.192 129.926 133.192ZM129.942 132.184C131.542 132.184 132.294 130.824 132.294 129.176C132.294 127.528 131.462 126.136 129.862 126.136C128.262 126.136 127.622 127.496 127.622 129.144C127.622 130.792 128.342 132.184 129.942 132.184ZM135.5 133V125.32H136.668V126.52C136.972 126.008 137.644 125.128 138.716 125.128C139.18 125.128 139.42 125.24 139.516 125.288L139.228 126.408C139.148 126.36 138.956 126.28 138.556 126.28C137.404 126.28 136.764 127.608 136.668 127.848V133H135.5ZM144.609 133V125.32H145.777V126.408C146.113 125.992 146.817 125.128 148.129 125.128C149.249 125.128 149.841 125.704 150.097 126.424C150.689 125.768 151.457 125.128 152.577 125.128C154.129 125.128 154.737 126.168 154.737 127.528V133H153.569V127.752C153.569 126.824 153.281 126.184 152.305 126.184C151.361 126.184 150.625 126.92 150.257 127.384V133H149.089V127.752C149.089 126.792 148.753 126.184 147.857 126.184C146.737 126.184 145.937 127.352 145.777 127.576V133H144.609ZM160.256 133.192C157.84 133.192 156.624 131.384 156.624 129.112C156.624 126.856 158.032 125.128 160.08 125.128C161.984 125.128 163.104 126.488 163.104 128.584C163.104 128.76 163.088 128.936 163.072 129.128H157.872C157.904 130.76 158.56 132.184 160.288 132.184C161.36 132.184 162.08 131.704 162.416 131.496L162.896 132.408C162.512 132.664 161.648 133.192 160.256 133.192ZM157.936 128.2H161.904C161.872 127.112 161.376 126.136 160.048 126.136C158.816 126.136 158.144 127 157.936 128.2ZM166.916 133.208C165.812 133.208 164.964 132.808 164.484 132.472L164.996 131.576C165.284 131.784 165.972 132.2 166.9 132.2C167.86 132.2 168.468 131.8 168.468 131.096C168.468 130.392 167.892 130.088 166.772 129.608C165.572 129.096 164.66 128.552 164.66 127.24C164.66 126.056 165.556 125.128 167.092 125.128C168.356 125.128 169.124 125.672 169.364 125.864L168.788 126.712C168.516 126.504 167.94 126.136 167.076 126.136C166.26 126.136 165.796 126.536 165.796 127.192C165.796 127.912 166.42 128.216 167.268 128.568C168.516 129.096 169.652 129.64 169.652 130.936C169.652 132.328 168.596 133.208 166.916 133.208Z" fill="#005F86"/>
</g>
<defs>
<filter id="filter0_d_2001_514" x="0" y="0" width="188" height="156" filterUnits="userSpaceOnUse" color-interpolation-filters="sRGB">
<feFlood flood-opacity="0" result="BackgroundImageFix"/>
<feColorMatrix in="SourceAlpha" type="matrix" values="0 0 0 0 0 0 0 0 0 0 0 0 0 0 0 0 0 0 127 0" result="hardAlpha"/>
<feOffset/>
<feGaussianBlur stdDeviation="4"/>
<feComposite in2="hardAlpha" operator="out"/>
<feColorMatrix type="matrix" values="0 0 0 0 0 0 0 0 0 0 0 0 0 0 0 0 0 0 0.1 0"/>
<feBlend mode="normal" in2="BackgroundImageFix" result="effect1_dropShadow_2001_514"/>
<feBlend mode="normal" in="SourceGraphic" in2="effect1_dropShadow_2001_514" result="shape"/>
</filter>
</defs>
</svg>
