<svg width="188" height="156" viewBox="0 0 188 156" fill="none" xmlns="http://www.w3.org/2000/svg">
<g filter="url(#filter0_d_2001_530)">
<mask id="path-1-inside-1_2001_530" fill="white">
<path d="M8 18C8 12.4772 12.4772 8 18 8H170C175.523 8 180 12.4772 180 18V138C180 143.523 175.523 148 170 148H18C12.4772 148 8 143.523 8 138V18Z"/>
</mask>
<path d="M8 18C8 12.4772 12.4772 8 18 8H170C175.523 8 180 12.4772 180 18V138C180 143.523 175.523 148 170 148H18C12.4772 148 8 143.523 8 138V18Z" fill="white"/>
<path d="M8 18C8 10.268 14.268 4 22 4H166C173.732 4 180 10.268 180 18C180 14.6863 175.523 12 170 12H18C12.4772 12 8 14.6863 8 18ZM180 148H8H180ZM8 148V8V148ZM180 8V148V8Z" fill="#F26C29" mask="url(#path-1-inside-1_2001_530)"/>
<rect width="172" height="68" transform="translate(8 20)" fill="white"/>
<g clip-path="url(#clip0_2001_530)">
<path fill-rule="evenodd" clip-rule="evenodd" d="M51.4609 66.5725V55.9424L39.3057 44.4275L34.0972 40H48.8556L52.328 44.4275L57.5365 49.7435L61.8779 44.4275C65.3522 41.7714 65.3522 40 65.3522 40H80.1106L74.9021 44.4275L62.7489 55.9443V66.5725C62.7489 69.2286 64.485 71 64.485 71H50.5918L51.4609 66.5725ZM120.914 66.5725V44.4275L120.045 40H153.903V47.9702L149.563 47.0855H133.067V53.2863H149.563V60.3718L145.222 59.4851H133.067V66.5725L133.936 71H120.045L120.914 66.5725ZM94.869 54.171V46.2008H100.078C104.419 46.2008 106.155 47.0855 106.155 49.7435C106.155 52.4016 103.55 54.171 99.2085 54.171H94.869ZM81.8468 71H95.7362L94.869 66.5725V60.3718H102.681C113.1 60.3718 116.572 55.0576 116.572 49.7435C116.572 45.3141 113.969 40 103.55 40H81.8468L82.7139 44.4275V66.5725L81.8468 71Z" fill="#0063C2"/>
</g>
<rect width="172" height="60" transform="translate(8 88)" fill="white"/>
<path d="M66.8064 109.2V105.65H73.0564V109.2H66.8064ZM74.649 116V113.65C78.124 110.675 81.524 107.7 81.524 104.6C81.524 103.15 80.699 102.6 79.649 102.6C78.324 102.6 77.274 103.275 76.399 104.125L74.324 101.325C75.674 100.1 77.324 99.05 80.374 99.05C84.599 99.05 86.349 101.325 86.349 104.1C86.349 107.35 84.099 109.875 80.899 112.6C80.924 112.6 82.024 112.5 82.674 112.5H86.724V116H74.649ZM90.9297 116.3C89.2547 116.3 88.2547 116.05 87.9047 115.925L88.5797 112.425C88.8797 112.525 89.8547 112.8 90.8547 112.8C92.6797 112.8 94.0297 112.15 94.0297 110.6C94.0297 108.975 92.7047 108.425 90.6047 108.425C89.9297 108.425 89.0547 108.525 88.7047 108.6L89.2297 99.35H98.2797V102.85H93.2547L93.1047 105.1C96.5297 105.25 98.8047 106.9 98.8047 110.325C98.8047 114.2 95.6797 116.3 90.9297 116.3ZM105.084 107.95C101.984 107.95 100.259 106.05 100.259 103.525C100.259 101.1 102.034 99.05 105.134 99.05C108.234 99.05 109.959 100.875 109.959 103.4C109.959 105.9 108.184 107.95 105.084 107.95ZM105.134 105.3C106.109 105.3 106.184 104.4 106.184 103.525C106.184 102.675 105.984 101.7 105.109 101.7C104.209 101.7 104.034 102.475 104.034 103.4C104.034 104.275 104.234 105.3 105.134 105.3ZM117.109 116.3C114.009 116.3 112.284 114.4 112.284 111.875C112.284 109.45 114.059 107.4 117.159 107.4C120.259 107.4 121.984 109.225 121.984 111.75C121.984 114.25 120.209 116.3 117.109 116.3ZM117.159 113.65C118.134 113.65 118.209 112.75 118.209 111.875C118.209 111.025 118.009 110.05 117.134 110.05C116.234 110.05 116.059 110.825 116.059 111.75C116.059 112.625 116.259 113.65 117.159 113.65ZM104.484 116L114.184 99.35H117.709L108.009 116H104.484Z" fill="#005F86"/>
<path d="M21.9612 133V123.4H18.9372V122.344H26.2492V123.4H23.2252V133H21.9612ZM29.7154 133.192C27.1234 133.192 26.1634 130.968 26.1634 129.176C26.1634 127.384 27.0754 125.128 29.6674 125.128C32.2594 125.128 33.3314 127.352 33.3314 129.144C33.3314 130.936 32.3074 133.192 29.7154 133.192ZM29.7314 132.184C31.3314 132.184 32.0834 130.824 32.0834 129.176C32.0834 127.528 31.2514 126.136 29.6514 126.136C28.0514 126.136 27.4114 127.496 27.4114 129.144C27.4114 130.792 28.1314 132.184 29.7314 132.184ZM35.2886 136.504V125.32H36.4566V126.152C36.8566 125.672 37.5766 125.128 38.6806 125.128C40.5526 125.128 41.8006 126.6 41.8006 129.144C41.8006 131.56 40.3926 133.192 38.4086 133.192C37.3206 133.192 36.7446 132.776 36.4566 132.52V136.504H35.2886ZM38.2966 132.184C39.7686 132.184 40.5526 130.904 40.5526 129.176C40.5526 127.464 39.8966 126.184 38.4406 126.184C37.3686 126.184 36.6646 126.968 36.4566 127.256V131.48C36.8086 131.8 37.3526 132.184 38.2966 132.184ZM46.7173 133.192C44.3013 133.192 43.0853 131.384 43.0853 129.112C43.0853 126.856 44.4933 125.128 46.5413 125.128C48.4453 125.128 49.5653 126.488 49.5653 128.584C49.5653 128.76 49.5493 128.936 49.5333 129.128H44.3333C44.3653 130.76 45.0213 132.184 46.7493 132.184C47.8213 132.184 48.5413 131.704 48.8773 131.496L49.3573 132.408C48.9733 132.664 48.1093 133.192 46.7173 133.192ZM44.3973 128.2H48.3653C48.3333 127.112 47.8373 126.136 46.5093 126.136C45.2773 126.136 44.6053 127 44.3973 128.2ZM52.0811 133.144C51.5371 133.144 51.1051 132.696 51.1051 132.152C51.1051 131.608 51.5371 131.192 52.0811 131.192C52.6251 131.192 53.0571 131.608 53.0571 132.152C53.0571 132.696 52.6251 133.144 52.0811 133.144ZM52.0811 127.144C51.5371 127.144 51.1051 126.712 51.1051 126.168C51.1051 125.624 51.5371 125.192 52.0811 125.192C52.6251 125.192 53.0571 125.624 53.0571 126.168C53.0571 126.712 52.6251 127.144 52.0811 127.144ZM62.0046 134.888H61.0766V133.192C59.5086 133.144 58.5486 132.472 58.1806 132.104L58.8206 131.208C59.0446 131.432 59.7806 132.12 61.1246 132.152V127.976C61.0766 127.944 61.0286 127.928 60.9806 127.896C59.6846 127.256 58.5006 126.568 58.5006 124.872C58.5006 123.32 59.6686 122.392 61.0766 122.2V120.456H62.0046V122.168C63.3326 122.248 64.0846 122.76 64.4046 123L63.7966 123.928C63.4606 123.672 62.8686 123.288 61.9566 123.208V127C63.2846 127.64 64.6926 128.408 64.6926 130.328C64.6926 131.784 63.6206 132.872 62.0046 133.128V134.888ZM63.4446 130.344C63.4446 129.384 62.7886 128.84 61.9566 128.392V132.072C62.8686 131.848 63.4446 131.16 63.4446 130.344ZM59.7166 124.808C59.7166 125.752 60.3086 126.2 61.1246 126.6V123.24C60.2926 123.4 59.7166 123.992 59.7166 124.808ZM66.0209 133V132.312C67.8449 130.488 70.9969 127.496 70.9969 125.128C70.9969 123.8 70.1649 123.192 69.1409 123.192C68.0209 123.192 67.3009 123.704 66.7569 124.248L66.1329 123.48C66.8209 122.776 67.8129 122.152 69.1889 122.152C70.9809 122.152 72.3089 123.192 72.3089 124.952C72.3089 127.416 69.7009 129.976 67.7009 131.976C67.7009 131.976 68.3569 131.944 68.9169 131.944H72.5329V133H66.0209ZM75.0464 133.192C74.5344 133.192 74.1984 133.144 74.0384 133.112L74.1984 132.072C74.3104 132.088 74.6944 132.152 75.1104 132.152C76.9984 132.152 78.5184 131.32 78.5184 129.624C78.5184 127.864 77.2064 127.304 75.3504 127.304C74.9984 127.304 74.6304 127.32 74.4704 127.336L74.7744 122.344H79.4944V123.4H75.8784L75.7024 126.264C78.3104 126.312 79.7984 127.544 79.7984 129.544C79.7984 131.896 77.8624 133.192 75.0464 133.192ZM82.2522 133.144C81.7082 133.144 81.2762 132.712 81.2762 132.168C81.2762 131.624 81.7082 131.208 82.2522 131.208C82.7962 131.208 83.2282 131.624 83.2282 132.168C83.2282 132.712 82.7962 133.144 82.2522 133.144ZM88.7918 133.192C85.8958 133.192 84.7758 130.296 84.7758 127.672C84.7758 125.016 85.8318 122.152 88.7758 122.152C91.6718 122.152 92.8078 125.048 92.8078 127.672C92.8078 130.296 91.6718 133.192 88.7918 133.192ZM88.7758 132.184C90.6798 132.184 91.5278 130.184 91.5278 127.672C91.5278 125.16 90.6798 123.16 88.7918 123.16C86.8878 123.16 86.0398 125.16 86.0398 127.672C86.0398 130.184 86.8878 132.184 88.7758 132.184ZM98.3543 133.192C95.4583 133.192 94.3383 130.296 94.3383 127.672C94.3383 125.016 95.3943 122.152 98.3383 122.152C101.234 122.152 102.37 125.048 102.37 127.672C102.37 130.296 101.234 133.192 98.3543 133.192ZM98.3383 132.184C100.242 132.184 101.09 130.184 101.09 127.672C101.09 125.16 100.242 123.16 98.3543 123.16C96.4503 123.16 95.6023 125.16 95.6023 127.672C95.6023 130.184 96.4503 132.184 98.3383 132.184ZM107.917 133.192C105.021 133.192 103.901 130.296 103.901 127.672C103.901 125.016 104.957 122.152 107.901 122.152C110.797 122.152 111.933 125.048 111.933 127.672C111.933 130.296 110.797 133.192 107.917 133.192ZM107.901 132.184C109.805 132.184 110.653 130.184 110.653 127.672C110.653 125.16 109.805 123.16 107.917 123.16C106.013 123.16 105.165 125.16 105.165 127.672C105.165 130.184 106.013 132.184 107.901 132.184ZM117.601 136.504V125.32H118.769V126.152C119.169 125.672 119.889 125.128 120.993 125.128C122.865 125.128 124.113 126.6 124.113 129.144C124.113 131.56 122.705 133.192 120.721 133.192C119.633 133.192 119.057 132.776 118.769 132.52V136.504H117.601ZM120.609 132.184C122.081 132.184 122.865 130.904 122.865 129.176C122.865 127.464 122.209 126.184 120.753 126.184C119.681 126.184 118.977 126.968 118.769 127.256V131.48C119.121 131.8 119.665 132.184 120.609 132.184ZM128.95 133.192C126.358 133.192 125.398 130.968 125.398 129.176C125.398 127.384 126.31 125.128 128.902 125.128C131.494 125.128 132.566 127.352 132.566 129.144C132.566 130.936 131.542 133.192 128.95 133.192ZM128.966 132.184C130.566 132.184 131.318 130.824 131.318 129.176C131.318 127.528 130.486 126.136 128.886 126.136C127.286 126.136 126.646 127.496 126.646 129.144C126.646 130.792 127.366 132.184 128.966 132.184ZM134.523 133V125.32H135.691V126.52C135.995 126.008 136.667 125.128 137.739 125.128C138.203 125.128 138.443 125.24 138.539 125.288L138.251 126.408C138.171 126.36 137.979 126.28 137.579 126.28C136.427 126.28 135.787 127.608 135.691 127.848V133H134.523ZM143.632 133V125.32H144.8V126.408C145.136 125.992 145.84 125.128 147.152 125.128C148.272 125.128 148.864 125.704 149.12 126.424C149.712 125.768 150.48 125.128 151.6 125.128C153.152 125.128 153.76 126.168 153.76 127.528V133H152.592V127.752C152.592 126.824 152.304 126.184 151.328 126.184C150.384 126.184 149.648 126.92 149.28 127.384V133H148.112V127.752C148.112 126.792 147.776 126.184 146.88 126.184C145.76 126.184 144.96 127.352 144.8 127.576V133H143.632ZM159.28 133.192C156.864 133.192 155.648 131.384 155.648 129.112C155.648 126.856 157.056 125.128 159.104 125.128C161.008 125.128 162.128 126.488 162.128 128.584C162.128 128.76 162.112 128.936 162.096 129.128H156.896C156.928 130.76 157.584 132.184 159.312 132.184C160.384 132.184 161.104 131.704 161.44 131.496L161.92 132.408C161.536 132.664 160.672 133.192 159.28 133.192ZM156.96 128.2H160.928C160.896 127.112 160.4 126.136 159.072 126.136C157.84 126.136 157.168 127 156.96 128.2ZM165.94 133.208C164.836 133.208 163.988 132.808 163.508 132.472L164.02 131.576C164.308 131.784 164.996 132.2 165.924 132.2C166.884 132.2 167.492 131.8 167.492 131.096C167.492 130.392 166.916 130.088 165.796 129.608C164.596 129.096 163.684 128.552 163.684 127.24C163.684 126.056 164.58 125.128 166.116 125.128C167.38 125.128 168.148 125.672 168.388 125.864L167.812 126.712C167.54 126.504 166.964 126.136 166.1 126.136C165.284 126.136 164.82 126.536 164.82 127.192C164.82 127.912 165.444 128.216 166.292 128.568C167.54 129.096 168.676 129.64 168.676 130.936C168.676 132.328 167.62 133.208 165.94 133.208Z" fill="#005F86"/>
</g>
<defs>
<filter id="filter0_d_2001_530" x="0" y="0" width="188" height="156" filterUnits="userSpaceOnUse" color-interpolation-filters="sRGB">
<feFlood flood-opacity="0" result="BackgroundImageFix"/>
<feColorMatrix in="SourceAlpha" type="matrix" values="0 0 0 0 0 0 0 0 0 0 0 0 0 0 0 0 0 0 127 0" result="hardAlpha"/>
<feOffset/>
<feGaussianBlur stdDeviation="4"/>
<feComposite in2="hardAlpha" operator="out"/>
<feColorMatrix type="matrix" values="0 0 0 0 0 0 0 0 0 0 0 0 0 0 0 0 0 0 0.1 0"/>
<feBlend mode="normal" in2="BackgroundImageFix" result="effect1_dropShadow_2001_530"/>
<feBlend mode="normal" in="SourceGraphic" in2="effect1_dropShadow_2001_530" result="shape"/>
</filter>
<clipPath id="clip0_2001_530">
<rect width="120" height="31" fill="white" transform="translate(34 40)"/>
</clipPath>
</defs>
</svg>
