<svg width="259" height="186" viewBox="0 0 259 186" fill="none" xmlns="http://www.w3.org/2000/svg">
<g filter="url(#filter0_d_2001_960)">
<mask id="path-1-inside-1_2001_960" fill="white">
<path d="M8 18C8 12.4772 12.4772 8 18 8H241C246.523 8 251 12.4772 251 18V168C251 173.523 246.523 178 241 178H18C12.4771 178 8 173.523 8 168V18Z"/>
</mask>
<path d="M8 18C8 12.4772 12.4772 8 18 8H241C246.523 8 251 12.4772 251 18V168C251 173.523 246.523 178 241 178H18C12.4771 178 8 173.523 8 168V18Z" fill="white"/>
<path d="M8 18C8 10.268 14.268 4 22 4H237C244.732 4 251 10.268 251 18C251 14.6863 246.523 12 241 12H18C12.4772 12 8 14.6863 8 18ZM251 178H8H251ZM8 178V8V178ZM251 8V178V8Z" fill="#F26C29" mask="url(#path-1-inside-1_2001_960)"/>
<rect width="243" height="85" transform="translate(8 20)" fill="white"/>
<path d="M146.256 73.0057L124.078 34.5515L140.011 25.4212L167.588 73.0057H146.256Z" fill="black"/>
<path d="M87.1846 67.618L103.117 58.426L111.547 73.0057H90.2762L87.1846 67.618Z" fill="black"/>
<path d="M118.452 97.5382H122.987V79.2365H118.452V97.5382Z" fill="black"/>
<path d="M175.277 97.97C170.207 97.97 167.156 95.3584 166.991 91.6775H171.773C171.773 92.8291 172.494 94.5153 175.586 94.577C177.647 94.577 178.616 93.3637 178.616 92.4589C178.492 91.0195 176.678 90.8961 174.741 90.5876C172.804 90.2792 171.155 89.9296 169.959 89.3127C168.434 88.5312 167.403 86.845 167.403 84.912C167.403 81.6424 170.248 79.0514 174.988 79.0514C179.585 79.0514 182.491 81.4573 182.8 85.0354H178.183C178.142 84.0689 177.956 82.5472 175.236 82.5472C173.401 82.5472 172.185 82.9174 172.082 84.1923C172.082 86.0636 175.895 85.9402 178.863 86.7216C181.707 87.4414 183.521 89.2099 183.521 91.6775C183.521 96.2221 179.832 97.97 175.277 97.97Z" fill="black"/>
<path d="M105.858 51.2904L121.79 42.119L139.66 73.0057H122.986V77.5297H118.451V72.9851L105.858 51.2904Z" fill="black"/>
<path d="M106.271 97.97C100.994 97.97 96.7073 93.6722 96.7073 88.4696C96.7073 83.2053 100.994 79.0514 106.271 79.0514C108.27 79.0514 110.084 79.586 111.671 80.6759V73.0057H116.205V97.5382H111.671V96.3249C110.084 97.3531 108.27 97.97 106.271 97.97ZM101.056 88.4696C101.056 91.3074 103.488 93.6722 106.394 93.6722C109.239 93.6722 111.671 91.3074 111.671 88.4696C111.671 85.6318 109.239 83.2053 106.394 83.2053C103.488 83.2053 101.056 85.6318 101.056 88.4696Z" fill="black"/>
<path d="M139.784 73.0057H144.256V97.5382H139.784V96.3249C138.259 97.3531 136.383 97.97 134.322 97.97C129.107 97.97 124.82 93.6722 124.82 88.4696C124.82 83.2053 129.107 79.0514 134.322 79.0514C136.383 79.0514 138.197 79.5861 139.784 80.6759V73.0057ZM129.231 88.4696C129.231 91.3074 131.663 93.6722 134.446 93.6722C137.352 93.6722 139.784 91.3074 139.784 88.4696C139.784 85.6318 137.352 83.2053 134.446 83.2053C131.663 83.2053 129.231 85.6318 129.231 88.4696Z" fill="black"/>
<path d="M155.283 97.97C150.089 97.97 145.781 93.6722 145.781 88.4696C145.781 83.2053 150.089 79.0514 155.283 79.0514C157.282 79.0514 159.158 79.5861 160.683 80.6759V79.2159H165.217V97.5382H160.683V96.3249C159.158 97.3531 157.344 97.97 155.283 97.97ZM150.192 88.4696C150.192 91.3074 152.624 93.6722 155.468 93.6722C158.313 93.6722 160.683 91.3074 160.683 88.4696C160.683 85.6318 158.313 83.2053 155.468 83.2053C152.624 83.2053 150.192 85.6318 150.192 88.4696Z" fill="black"/>
<path d="M80.0326 88.4696C80.0326 91.3074 82.4647 93.6722 85.309 93.6722C88.2152 93.6722 90.6473 91.3074 90.6473 88.4696C90.6473 85.6318 88.2152 83.2053 85.309 83.2053C82.4647 83.2053 80.0326 85.6318 80.0326 88.4696ZM85.1854 97.97C79.9708 97.97 75.6631 93.6722 75.6631 88.4696C75.6631 83.2053 79.9708 79.0514 85.1854 79.0514C87.1846 79.0514 89.0602 79.586 90.6473 80.6759V79.2159H95.1199V97.5382H90.6473V96.3249C89.1221 97.3531 87.2465 97.97 85.1854 97.97Z" fill="black"/>
<rect width="243" height="73" transform="translate(8 105)" fill="white"/>
<path d="M97.5393 130.384V126.408H104.539V130.384H97.5393ZM109.963 138.336C108.115 138.336 106.883 138 106.407 137.86L107.247 133.996C107.611 134.108 108.507 134.416 109.823 134.416C111.979 134.416 113.491 133.8 113.491 132.288C113.491 130.72 112.119 130.16 109.011 130.132V126.744C111.783 126.66 113.043 125.736 113.043 124.504C113.043 123.468 112.315 122.936 111.055 122.936C109.963 122.936 108.843 123.524 108.283 123.944L106.239 120.724C107.275 119.996 109.263 119.016 112.259 119.016C116.123 119.016 118.223 120.724 118.223 123.356C118.223 125.82 116.347 127.136 114.527 127.668V127.724C116.543 127.976 118.895 129.32 118.895 132.288C118.895 136.04 115.535 138.336 109.963 138.336ZM128.803 138.336C123.063 138.336 120.823 133.716 120.823 128.676C120.823 123.608 122.951 119.016 128.775 119.016C134.515 119.016 136.783 123.636 136.783 128.676C136.783 133.716 134.515 138.336 128.803 138.336ZM128.775 134.416C130.707 134.416 131.379 132.652 131.379 128.676C131.379 124.7 130.707 122.936 128.803 122.936C126.871 122.936 126.199 124.7 126.199 128.676C126.199 132.652 126.871 134.416 128.775 134.416ZM143.418 128.984C139.946 128.984 138.014 126.856 138.014 124.028C138.014 121.312 140.002 119.016 143.474 119.016C146.946 119.016 148.878 121.06 148.878 123.888C148.878 126.688 146.89 128.984 143.418 128.984ZM143.474 126.016C144.566 126.016 144.65 125.008 144.65 124.028C144.65 123.076 144.426 121.984 143.446 121.984C142.438 121.984 142.242 122.852 142.242 123.888C142.242 124.868 142.466 126.016 143.474 126.016ZM156.886 138.336C153.414 138.336 151.482 136.208 151.482 133.38C151.482 130.664 153.47 128.368 156.942 128.368C160.414 128.368 162.346 130.412 162.346 133.24C162.346 136.04 160.358 138.336 156.886 138.336ZM156.942 135.368C158.034 135.368 158.118 134.36 158.118 133.38C158.118 132.428 157.894 131.336 156.914 131.336C155.906 131.336 155.71 132.204 155.71 133.24C155.71 134.22 155.934 135.368 156.942 135.368ZM142.746 138L153.61 119.352H157.558L146.694 138H142.746Z" fill="#005F86"/>
<path d="M47.3577 158V147.2H43.9557V146.012H52.1817V147.2H48.7797V158H47.3577ZM56.0812 158.216C53.1652 158.216 52.0852 155.714 52.0852 153.698C52.0852 151.682 53.1112 149.144 56.0272 149.144C58.9432 149.144 60.1492 151.646 60.1492 153.662C60.1492 155.678 58.9972 158.216 56.0812 158.216ZM56.0992 157.082C57.8992 157.082 58.7452 155.552 58.7452 153.698C58.7452 151.844 57.8092 150.278 56.0092 150.278C54.2092 150.278 53.4892 151.808 53.4892 153.662C53.4892 155.516 54.2992 157.082 56.0992 157.082ZM62.351 161.942V149.36H63.665V150.296C64.115 149.756 64.925 149.144 66.167 149.144C68.273 149.144 69.677 150.8 69.677 153.662C69.677 156.38 68.093 158.216 65.861 158.216C64.637 158.216 63.989 157.748 63.665 157.46V161.942H62.351ZM65.735 157.082C67.391 157.082 68.273 155.642 68.273 153.698C68.273 151.772 67.535 150.332 65.897 150.332C64.691 150.332 63.899 151.214 63.665 151.538V156.29C64.061 156.65 64.673 157.082 65.735 157.082ZM75.2083 158.216C72.4903 158.216 71.1223 156.182 71.1223 153.626C71.1223 151.088 72.7063 149.144 75.0103 149.144C77.1523 149.144 78.4123 150.674 78.4123 153.032C78.4123 153.23 78.3943 153.428 78.3763 153.644H72.5263C72.5623 155.48 73.3003 157.082 75.2443 157.082C76.4503 157.082 77.2603 156.542 77.6383 156.308L78.1783 157.334C77.7463 157.622 76.7743 158.216 75.2083 158.216ZM72.5983 152.6H77.0623C77.0263 151.376 76.4683 150.278 74.9743 150.278C73.5883 150.278 72.8323 151.25 72.5983 152.6ZM81.2426 158.162C80.6306 158.162 80.1446 157.658 80.1446 157.046C80.1446 156.434 80.6306 155.966 81.2426 155.966C81.8546 155.966 82.3406 156.434 82.3406 157.046C82.3406 157.658 81.8546 158.162 81.2426 158.162ZM81.2426 151.412C80.6306 151.412 80.1446 150.926 80.1446 150.314C80.1446 149.702 80.6306 149.216 81.2426 149.216C81.8546 149.216 82.3406 149.702 82.3406 150.314C82.3406 150.926 81.8546 151.412 81.2426 151.412ZM92.4065 160.124H91.3625V158.216C89.5985 158.162 88.5185 157.406 88.1045 156.992L88.8245 155.984C89.0765 156.236 89.9045 157.01 91.4165 157.046V152.348C91.3625 152.312 91.3085 152.294 91.2545 152.258C89.7965 151.538 88.4645 150.764 88.4645 148.856C88.4645 147.11 89.7785 146.066 91.3625 145.85V143.888H92.4065V145.814C93.9005 145.904 94.7465 146.48 95.1065 146.75L94.4225 147.794C94.0445 147.506 93.3785 147.074 92.3525 146.984V151.25C93.8465 151.97 95.4305 152.834 95.4305 154.994C95.4305 156.632 94.2245 157.856 92.4065 158.144V160.124ZM94.0265 155.012C94.0265 153.932 93.2885 153.32 92.3525 152.816V156.956C93.3785 156.704 94.0265 155.93 94.0265 155.012ZM89.8325 148.784C89.8325 149.846 90.4985 150.35 91.4165 150.8V147.02C90.4805 147.2 89.8325 147.866 89.8325 148.784ZM98.8329 158.216C97.8429 158.216 97.2489 158.126 97.0689 158.072L97.2669 156.902C97.4649 156.956 97.9689 157.046 98.7969 157.046C100.993 157.046 102.181 156.074 102.181 154.508C102.181 152.672 100.561 152.042 98.3289 152.024V151.052C100.129 151.034 101.821 150.116 101.821 148.568C101.821 147.578 101.119 147.002 99.8769 147.002C98.7249 147.002 98.0589 147.362 97.4109 147.866L96.7629 146.984C97.3929 146.426 98.4729 145.796 99.9669 145.796C102.145 145.796 103.243 146.966 103.243 148.496C103.243 150.008 102.001 150.998 100.633 151.376V151.394C102.199 151.538 103.621 152.78 103.621 154.436C103.621 156.902 101.569 158.216 98.8329 158.216ZM110.027 158.216C106.769 158.216 105.509 154.958 105.509 152.006C105.509 149.018 106.697 145.796 110.009 145.796C113.267 145.796 114.545 149.054 114.545 152.006C114.545 154.958 113.267 158.216 110.027 158.216ZM110.009 157.082C112.151 157.082 113.105 154.832 113.105 152.006C113.105 149.18 112.151 146.93 110.027 146.93C107.885 146.93 106.931 149.18 106.931 152.006C106.931 154.832 107.885 157.082 110.009 157.082ZM117.382 158.162C116.77 158.162 116.284 157.676 116.284 157.064C116.284 156.452 116.77 155.984 117.382 155.984C117.994 155.984 118.48 156.452 118.48 157.064C118.48 157.676 117.994 158.162 117.382 158.162ZM124.739 158.216C121.481 158.216 120.221 154.958 120.221 152.006C120.221 149.018 121.409 145.796 124.721 145.796C127.979 145.796 129.257 149.054 129.257 152.006C129.257 154.958 127.979 158.216 124.739 158.216ZM124.721 157.082C126.863 157.082 127.817 154.832 127.817 152.006C127.817 149.18 126.863 146.93 124.739 146.93C122.597 146.93 121.643 149.18 121.643 152.006C121.643 154.832 122.597 157.082 124.721 157.082ZM135.497 158.216C132.239 158.216 130.979 154.958 130.979 152.006C130.979 149.018 132.167 145.796 135.479 145.796C138.737 145.796 140.015 149.054 140.015 152.006C140.015 154.958 138.737 158.216 135.497 158.216ZM135.479 157.082C137.621 157.082 138.575 154.832 138.575 152.006C138.575 149.18 137.621 146.93 135.497 146.93C133.355 146.93 132.401 149.18 132.401 152.006C132.401 154.832 133.355 157.082 135.479 157.082ZM146.255 158.216C142.997 158.216 141.737 154.958 141.737 152.006C141.737 149.018 142.925 145.796 146.237 145.796C149.495 145.796 150.773 149.054 150.773 152.006C150.773 154.958 149.495 158.216 146.255 158.216ZM146.237 157.082C148.379 157.082 149.333 154.832 149.333 152.006C149.333 149.18 148.379 146.93 146.255 146.93C144.113 146.93 143.159 149.18 143.159 152.006C143.159 154.832 144.113 157.082 146.237 157.082ZM157.15 161.942V149.36H158.464V150.296C158.914 149.756 159.724 149.144 160.966 149.144C163.072 149.144 164.476 150.8 164.476 153.662C164.476 156.38 162.892 158.216 160.66 158.216C159.436 158.216 158.788 157.748 158.464 157.46V161.942H157.15ZM160.534 157.082C162.19 157.082 163.072 155.642 163.072 153.698C163.072 151.772 162.334 150.332 160.696 150.332C159.49 150.332 158.698 151.214 158.464 151.538V156.29C158.86 156.65 159.472 157.082 160.534 157.082ZM169.917 158.216C167.001 158.216 165.921 155.714 165.921 153.698C165.921 151.682 166.947 149.144 169.863 149.144C172.779 149.144 173.985 151.646 173.985 153.662C173.985 155.678 172.833 158.216 169.917 158.216ZM169.935 157.082C171.735 157.082 172.581 155.552 172.581 153.698C172.581 151.844 171.645 150.278 169.845 150.278C168.045 150.278 167.325 151.808 167.325 153.662C167.325 155.516 168.135 157.082 169.935 157.082ZM176.187 158V149.36H177.501V150.71C177.843 150.134 178.599 149.144 179.805 149.144C180.327 149.144 180.597 149.27 180.705 149.324L180.381 150.584C180.291 150.53 180.075 150.44 179.625 150.44C178.329 150.44 177.609 151.934 177.501 152.204V158H176.187ZM186.435 158V149.36H187.749V150.584C188.127 150.116 188.919 149.144 190.395 149.144C191.655 149.144 192.321 149.792 192.609 150.602C193.275 149.864 194.139 149.144 195.399 149.144C197.145 149.144 197.829 150.314 197.829 151.844V158H196.515V152.096C196.515 151.052 196.191 150.332 195.093 150.332C194.031 150.332 193.203 151.16 192.789 151.682V158H191.475V152.096C191.475 151.016 191.097 150.332 190.089 150.332C188.829 150.332 187.929 151.646 187.749 151.898V158H186.435ZM204.038 158.216C201.32 158.216 199.952 156.182 199.952 153.626C199.952 151.088 201.536 149.144 203.84 149.144C205.982 149.144 207.242 150.674 207.242 153.032C207.242 153.23 207.224 153.428 207.206 153.644H201.356C201.392 155.48 202.13 157.082 204.074 157.082C205.28 157.082 206.09 156.542 206.468 156.308L207.008 157.334C206.576 157.622 205.604 158.216 204.038 158.216ZM201.428 152.6H205.892C205.856 151.376 205.298 150.278 203.804 150.278C202.418 150.278 201.662 151.25 201.428 152.6ZM211.531 158.234C210.289 158.234 209.335 157.784 208.795 157.406L209.371 156.398C209.695 156.632 210.469 157.1 211.513 157.1C212.593 157.1 213.277 156.65 213.277 155.858C213.277 155.066 212.629 154.724 211.369 154.184C210.019 153.608 208.993 152.996 208.993 151.52C208.993 150.188 210.001 149.144 211.729 149.144C213.151 149.144 214.015 149.756 214.285 149.972L213.637 150.926C213.331 150.692 212.683 150.278 211.711 150.278C210.793 150.278 210.271 150.728 210.271 151.466C210.271 152.276 210.973 152.618 211.927 153.014C213.331 153.608 214.609 154.22 214.609 155.678C214.609 157.244 213.421 158.234 211.531 158.234Z" fill="#005F86"/>
</g>
<defs>
<filter id="filter0_d_2001_960" x="0" y="0" width="259" height="186" filterUnits="userSpaceOnUse" color-interpolation-filters="sRGB">
<feFlood flood-opacity="0" result="BackgroundImageFix"/>
<feColorMatrix in="SourceAlpha" type="matrix" values="0 0 0 0 0 0 0 0 0 0 0 0 0 0 0 0 0 0 127 0" result="hardAlpha"/>
<feOffset/>
<feGaussianBlur stdDeviation="4"/>
<feComposite in2="hardAlpha" operator="out"/>
<feColorMatrix type="matrix" values="0 0 0 0 0 0 0 0 0 0 0 0 0 0 0 0 0 0 0.1 0"/>
<feBlend mode="normal" in2="BackgroundImageFix" result="effect1_dropShadow_2001_960"/>
<feBlend mode="normal" in="SourceGraphic" in2="effect1_dropShadow_2001_960" result="shape"/>
</filter>
</defs>
</svg>
