<svg width="259" height="186" viewBox="0 0 259 186" fill="none" xmlns="http://www.w3.org/2000/svg">
<g filter="url(#filter0_d_2001_976)">
<mask id="path-1-inside-1_2001_976" fill="white">
<path d="M8 18C8 12.4772 12.4772 8 18 8H241C246.523 8 251 12.4772 251 18V168C251 173.523 246.523 178 241 178H18C12.4771 178 8 173.523 8 168V18Z"/>
</mask>
<path d="M8 18C8 12.4772 12.4772 8 18 8H241C246.523 8 251 12.4772 251 18V168C251 173.523 246.523 178 241 178H18C12.4771 178 8 173.523 8 168V18Z" fill="white"/>
<path d="M8 18C8 10.268 14.268 4 22 4H237C244.732 4 251 10.268 251 18C251 14.6863 246.523 12 241 12H18C12.4772 12 8 14.6863 8 18ZM251 178H8H251ZM8 178V8V178ZM251 8V178V8Z" fill="#F26C29" mask="url(#path-1-inside-1_2001_976)"/>
<rect width="243" height="85" transform="translate(8 20)" fill="white"/>
<g clip-path="url(#clip0_2001_976)">
<path fill-rule="evenodd" clip-rule="evenodd" d="M78.8081 75.7156V63.028L64.3233 49.2844L58.1165 44H75.7036L79.8415 49.2844L86.0483 55.6294L91.2218 49.2844C95.3619 46.1142 95.3619 44 95.3619 44H112.949L106.742 49.2844L92.2597 63.0303V75.7156C92.2597 78.8858 94.3286 81 94.3286 81H77.7725L78.8081 75.7156ZM161.573 75.7156V49.2844L160.537 44H200.885V53.5128L195.714 52.4569H176.055V59.8578H195.714V68.3147L190.54 67.2564H176.055V75.7156L177.091 81H160.537L161.573 75.7156ZM130.536 60.9138V51.4009H136.743C141.917 51.4009 143.985 52.4569 143.985 55.6294C143.985 58.8019 140.881 60.9138 135.707 60.9138H130.536ZM115.018 81H131.57L130.536 75.7156V68.3147H139.845C152.261 68.3147 156.399 61.972 156.399 55.6294C156.399 50.3427 153.297 44 140.881 44H115.018L116.051 49.2844V75.7156L115.018 81Z" fill="#0063C2"/>
</g>
<rect width="243" height="73" transform="translate(8 105)" fill="white"/>
<path d="M99.0432 130.384V126.408H106.043V130.384H99.0432ZM107.827 138V135.368C111.719 132.036 115.527 128.704 115.527 125.232C115.527 123.608 114.603 122.992 113.427 122.992C111.943 122.992 110.767 123.748 109.787 124.7L107.463 121.564C108.975 120.192 110.823 119.016 114.239 119.016C118.971 119.016 120.931 121.564 120.931 124.672C120.931 128.312 118.411 131.14 114.827 134.192C114.855 134.192 116.087 134.08 116.815 134.08H121.351V138H107.827ZM126.061 138.336C124.185 138.336 123.065 138.056 122.673 137.916L123.429 133.996C123.765 134.108 124.857 134.416 125.977 134.416C128.021 134.416 129.533 133.688 129.533 131.952C129.533 130.132 128.049 129.516 125.697 129.516C124.941 129.516 123.961 129.628 123.569 129.712L124.157 119.352H134.293V123.272H128.665L128.497 125.792C132.333 125.96 134.881 127.808 134.881 131.644C134.881 135.984 131.381 138.336 126.061 138.336ZM141.915 128.984C138.443 128.984 136.511 126.856 136.511 124.028C136.511 121.312 138.499 119.016 141.971 119.016C145.443 119.016 147.375 121.06 147.375 123.888C147.375 126.688 145.387 128.984 141.915 128.984ZM141.971 126.016C143.062 126.016 143.147 125.008 143.147 124.028C143.147 123.076 142.923 121.984 141.943 121.984C140.935 121.984 140.739 122.852 140.739 123.888C140.739 124.868 140.963 126.016 141.971 126.016ZM155.383 138.336C151.911 138.336 149.979 136.208 149.979 133.38C149.979 130.664 151.967 128.368 155.439 128.368C158.911 128.368 160.843 130.412 160.843 133.24C160.843 136.04 158.855 138.336 155.383 138.336ZM155.439 135.368C156.531 135.368 156.615 134.36 156.615 133.38C156.615 132.428 156.391 131.336 155.411 131.336C154.403 131.336 154.207 132.204 154.207 133.24C154.207 134.22 154.431 135.368 155.439 135.368ZM141.243 138L152.107 119.352H156.055L145.191 138H141.243Z" fill="#005F86"/>
<path d="M48.4563 158V147.2H45.0543V146.012H53.2803V147.2H49.8783V158H48.4563ZM57.1799 158.216C54.2639 158.216 53.1839 155.714 53.1839 153.698C53.1839 151.682 54.2099 149.144 57.1259 149.144C60.0419 149.144 61.2479 151.646 61.2479 153.662C61.2479 155.678 60.0959 158.216 57.1799 158.216ZM57.1979 157.082C58.9979 157.082 59.8439 155.552 59.8439 153.698C59.8439 151.844 58.9079 150.278 57.1079 150.278C55.3079 150.278 54.5879 151.808 54.5879 153.662C54.5879 155.516 55.3979 157.082 57.1979 157.082ZM63.4496 161.942V149.36H64.7636V150.296C65.2136 149.756 66.0236 149.144 67.2656 149.144C69.3716 149.144 70.7756 150.8 70.7756 153.662C70.7756 156.38 69.1916 158.216 66.9596 158.216C65.7356 158.216 65.0876 157.748 64.7636 157.46V161.942H63.4496ZM66.8336 157.082C68.4896 157.082 69.3716 155.642 69.3716 153.698C69.3716 151.772 68.6336 150.332 66.9956 150.332C65.7896 150.332 64.9976 151.214 64.7636 151.538V156.29C65.1596 156.65 65.7716 157.082 66.8336 157.082ZM76.307 158.216C73.589 158.216 72.221 156.182 72.221 153.626C72.221 151.088 73.805 149.144 76.109 149.144C78.251 149.144 79.511 150.674 79.511 153.032C79.511 153.23 79.493 153.428 79.475 153.644H73.625C73.661 155.48 74.399 157.082 76.343 157.082C77.549 157.082 78.359 156.542 78.737 156.308L79.277 157.334C78.845 157.622 77.873 158.216 76.307 158.216ZM73.697 152.6H78.161C78.125 151.376 77.567 150.278 76.073 150.278C74.687 150.278 73.931 151.25 73.697 152.6ZM82.3412 158.162C81.7292 158.162 81.2432 157.658 81.2432 157.046C81.2432 156.434 81.7292 155.966 82.3412 155.966C82.9532 155.966 83.4392 156.434 83.4392 157.046C83.4392 157.658 82.9532 158.162 82.3412 158.162ZM82.3412 151.412C81.7292 151.412 81.2432 150.926 81.2432 150.314C81.2432 149.702 81.7292 149.216 82.3412 149.216C82.9532 149.216 83.4392 149.702 83.4392 150.314C83.4392 150.926 82.9532 151.412 82.3412 151.412ZM93.5051 160.124H92.4611V158.216C90.6971 158.162 89.6171 157.406 89.2031 156.992L89.9231 155.984C90.1751 156.236 91.0031 157.01 92.5151 157.046V152.348C92.4611 152.312 92.4071 152.294 92.3531 152.258C90.8951 151.538 89.5631 150.764 89.5631 148.856C89.5631 147.11 90.8771 146.066 92.4611 145.85V143.888H93.5051V145.814C94.9991 145.904 95.8451 146.48 96.2051 146.75L95.5211 147.794C95.1431 147.506 94.4771 147.074 93.4511 146.984V151.25C94.9451 151.97 96.5291 152.834 96.5291 154.994C96.5291 156.632 95.3231 157.856 93.5051 158.144V160.124ZM95.1251 155.012C95.1251 153.932 94.3871 153.32 93.4511 152.816V156.956C94.4771 156.704 95.1251 155.93 95.1251 155.012ZM90.9311 148.784C90.9311 149.846 91.5971 150.35 92.5151 150.8V147.02C91.5791 147.2 90.9311 147.866 90.9311 148.784ZM98.0236 158V157.226C100.076 155.174 103.622 151.808 103.622 149.144C103.622 147.65 102.686 146.966 101.534 146.966C100.274 146.966 99.4636 147.542 98.8516 148.154L98.1496 147.29C98.9236 146.498 100.04 145.796 101.588 145.796C103.604 145.796 105.098 146.966 105.098 148.946C105.098 151.718 102.164 154.598 99.9136 156.848C99.9136 156.848 100.652 156.812 101.282 156.812H105.35V158H98.0236ZM108.177 158.216C107.601 158.216 107.223 158.162 107.043 158.126L107.223 156.956C107.349 156.974 107.781 157.046 108.249 157.046C110.373 157.046 112.083 156.11 112.083 154.202C112.083 152.222 110.607 151.592 108.519 151.592C108.123 151.592 107.709 151.61 107.529 151.628L107.871 146.012H113.181V147.2H109.113L108.915 150.422C111.849 150.476 113.523 151.862 113.523 154.112C113.523 156.758 111.345 158.216 108.177 158.216ZM116.284 158.162C115.672 158.162 115.186 157.676 115.186 157.064C115.186 156.452 115.672 155.984 116.284 155.984C116.896 155.984 117.382 156.452 117.382 157.064C117.382 157.676 116.896 158.162 116.284 158.162ZM123.641 158.216C120.383 158.216 119.123 154.958 119.123 152.006C119.123 149.018 120.311 145.796 123.623 145.796C126.881 145.796 128.159 149.054 128.159 152.006C128.159 154.958 126.881 158.216 123.641 158.216ZM123.623 157.082C125.765 157.082 126.719 154.832 126.719 152.006C126.719 149.18 125.765 146.93 123.641 146.93C121.499 146.93 120.545 149.18 120.545 152.006C120.545 154.832 121.499 157.082 123.623 157.082ZM134.399 158.216C131.141 158.216 129.881 154.958 129.881 152.006C129.881 149.018 131.069 145.796 134.381 145.796C137.639 145.796 138.917 149.054 138.917 152.006C138.917 154.958 137.639 158.216 134.399 158.216ZM134.381 157.082C136.523 157.082 137.477 154.832 137.477 152.006C137.477 149.18 136.523 146.93 134.399 146.93C132.257 146.93 131.303 149.18 131.303 152.006C131.303 154.832 132.257 157.082 134.381 157.082ZM145.156 158.216C141.898 158.216 140.638 154.958 140.638 152.006C140.638 149.018 141.826 145.796 145.138 145.796C148.396 145.796 149.674 149.054 149.674 152.006C149.674 154.958 148.396 158.216 145.156 158.216ZM145.138 157.082C147.28 157.082 148.234 154.832 148.234 152.006C148.234 149.18 147.28 146.93 145.156 146.93C143.014 146.93 142.06 149.18 142.06 152.006C142.06 154.832 143.014 157.082 145.138 157.082ZM156.051 161.942V149.36H157.365V150.296C157.815 149.756 158.625 149.144 159.867 149.144C161.973 149.144 163.377 150.8 163.377 153.662C163.377 156.38 161.793 158.216 159.561 158.216C158.337 158.216 157.689 157.748 157.365 157.46V161.942H156.051ZM159.435 157.082C161.091 157.082 161.973 155.642 161.973 153.698C161.973 151.772 161.235 150.332 159.597 150.332C158.391 150.332 157.599 151.214 157.365 151.538V156.29C157.761 156.65 158.373 157.082 159.435 157.082ZM168.819 158.216C165.903 158.216 164.823 155.714 164.823 153.698C164.823 151.682 165.849 149.144 168.765 149.144C171.681 149.144 172.887 151.646 172.887 153.662C172.887 155.678 171.735 158.216 168.819 158.216ZM168.837 157.082C170.637 157.082 171.483 155.552 171.483 153.698C171.483 151.844 170.547 150.278 168.747 150.278C166.947 150.278 166.227 151.808 166.227 153.662C166.227 155.516 167.037 157.082 168.837 157.082ZM175.088 158V149.36H176.402V150.71C176.744 150.134 177.5 149.144 178.706 149.144C179.228 149.144 179.498 149.27 179.606 149.324L179.282 150.584C179.192 150.53 178.976 150.44 178.526 150.44C177.23 150.44 176.51 151.934 176.402 152.204V158H175.088ZM185.336 158V149.36H186.65V150.584C187.028 150.116 187.82 149.144 189.296 149.144C190.556 149.144 191.222 149.792 191.51 150.602C192.176 149.864 193.04 149.144 194.3 149.144C196.046 149.144 196.73 150.314 196.73 151.844V158H195.416V152.096C195.416 151.052 195.092 150.332 193.994 150.332C192.932 150.332 192.104 151.16 191.69 151.682V158H190.376V152.096C190.376 151.016 189.998 150.332 188.99 150.332C187.73 150.332 186.83 151.646 186.65 151.898V158H185.336ZM202.94 158.216C200.222 158.216 198.854 156.182 198.854 153.626C198.854 151.088 200.438 149.144 202.742 149.144C204.884 149.144 206.144 150.674 206.144 153.032C206.144 153.23 206.126 153.428 206.108 153.644H200.258C200.294 155.48 201.032 157.082 202.976 157.082C204.182 157.082 204.992 156.542 205.37 156.308L205.91 157.334C205.478 157.622 204.506 158.216 202.94 158.216ZM200.33 152.6H204.794C204.758 151.376 204.2 150.278 202.706 150.278C201.32 150.278 200.564 151.25 200.33 152.6ZM210.432 158.234C209.19 158.234 208.236 157.784 207.696 157.406L208.272 156.398C208.596 156.632 209.37 157.1 210.414 157.1C211.494 157.1 212.178 156.65 212.178 155.858C212.178 155.066 211.53 154.724 210.27 154.184C208.92 153.608 207.894 152.996 207.894 151.52C207.894 150.188 208.902 149.144 210.63 149.144C212.052 149.144 212.916 149.756 213.186 149.972L212.538 150.926C212.232 150.692 211.584 150.278 210.612 150.278C209.694 150.278 209.172 150.728 209.172 151.466C209.172 152.276 209.874 152.618 210.828 153.014C212.232 153.608 213.51 154.22 213.51 155.678C213.51 157.244 212.322 158.234 210.432 158.234Z" fill="#005F86"/>
</g>
<defs>
<filter id="filter0_d_2001_976" x="0" y="0" width="259" height="186" filterUnits="userSpaceOnUse" color-interpolation-filters="sRGB">
<feFlood flood-opacity="0" result="BackgroundImageFix"/>
<feColorMatrix in="SourceAlpha" type="matrix" values="0 0 0 0 0 0 0 0 0 0 0 0 0 0 0 0 0 0 127 0" result="hardAlpha"/>
<feOffset/>
<feGaussianBlur stdDeviation="4"/>
<feComposite in2="hardAlpha" operator="out"/>
<feColorMatrix type="matrix" values="0 0 0 0 0 0 0 0 0 0 0 0 0 0 0 0 0 0 0.1 0"/>
<feBlend mode="normal" in2="BackgroundImageFix" result="effect1_dropShadow_2001_976"/>
<feBlend mode="normal" in="SourceGraphic" in2="effect1_dropShadow_2001_976" result="shape"/>
</filter>
<clipPath id="clip0_2001_976">
<rect width="143" height="37" fill="white" transform="translate(58 44)"/>
</clipPath>
</defs>
</svg>
